PathFileType	4	(X/Y/Z)	D:\Documents\Paper\paper_03\paper_step_1_data\data_step_3\marker\BD\subject_01.tsv
DataRate	CameraRate	NumFrames	NumMarkers	Units	OrigDataRate	OrigDataStartFrame	OrigNumFrames
200	200	8	43	mm	200	603	200
Frame#	Time	Top.Head			L.Acromium			R.Acromium			Sternum			L.ASIS			R.ASIS			V.Sacral			R.Knee.Lat			R.Knee.Med			L.Knee.Lat			L.Knee.Med			L.Ankle.Lat			L.Toe.Tip			R.Heel			R.Ankle.Med			R.Ankle.Lat			L.Toe.Med			L.Toe.Lat			L.Heel			L.Ankle.Med			L.Shank1			L.Shank2			R.Toe.Tip			R.Toe.Med			R.Toe.Lat			L.Thigh2			L.Thigh1			L.Thigh3			R.Thigh3			R.Thigh1			R.Thigh2			R.Shank1			R.Shank2			R.Shank3			L.Shank3			L.Shank4			R.Shank4			L.Thigh4			R.Thigh4			R.Heel.Lat			R.Heel.Med			L.Heel.Lat			L.Heel.Med		
		X1	Y1	Z1	X2	Y2	Z2	X3	Y3	Z3	X4	Y4	Z4	X5	Y5	Z5	X6	Y6	Z6	X7	Y7	Z7	X8	Y8	Z8	X9	Y9	Z9	X10	Y10	Z10	X11	Y11	Z11	X12	Y12	Z12	X13	Y13	Z13	X14	Y14	Z14	X15	Y15	Z15	X16	Y16	Z16	X17	Y17	Z17	X18	Y18	Z18	X19	Y19	Z19	X20	Y20	Z20	X21	Y21	Z21	X22	Y22	Z22	X23	Y23	Z23	X24	Y24	Z24	X25	Y25	Z25	X26	Y26	Z26	X27	Y27	Z27	X28	Y28	Z28	X29	Y29	Z29	X30	Y30	Z30	X31	Y31	Z31	X32	Y32	Z32	X33	Y33	Z33	X34	Y34	Z34	X35	Y35	Z35	X36	Y36	Z36	X37	Y37	Z37	X38	Y38	Z38	X39	Y39	Z39	X40	Y40	Z40	X41	Y41	Z41	X42	Y42	Z42	X43	Y43	Z43
2000	9.995	926.067	1692.804	-991.51	935.362	1410.385	-816.781	1093.342	1400.078	-1089.742	901.938	1359.276	-1018.356	805.817	912.284	-931.352	928.456	931.868	-1133.489	1010.094	964.189	-952.614	1003.948	475.053	-1165.398	948.834	454.669	-1065.374	849.695	476.091	-846.848	886.469	456.929	-949.818	907.049	102.795	-808.634	726.947	56.518	-869.009	1104.949	34.291	-1104.175	990.275	103.167	-1115.254	1060.748	104.869	-1173.929	786.943	45.293	-907.822	793.477	46.392	-802.809	1001.389	31.43	-814.54	927.218	104.567	-894.516	831.577	388.329	-837.212	829.697	307.71	-819.099	876.023	54.642	-1277.25	900.015	44.562	-1205.393	986.503	37.507	-1275.051	792.125	613.142	-878.185	793.477	696.15	-874.524	837.758	692.421	-829.194	1032.116	656.608	-1155.245	977.522	648.235	-1188.631	978.421	565.156	-1181.691	988.309	390.336	-1204.618	1003.667	304.018	-1210.2	1047.474	399.388	-1181.33	883.966	395.939	-801.122	885.716	309.818	-784.709	1062.735	317.329	-1187.081	837.692	605.652	-833.368	1031.776	568.269	-1148.756	1098.311	32.1	-1172.689	1024.771	25.282	-1100.987	935.374	22.306	-780.054	956.489	27.302	-883.568
2001	10	926.017	1692.833	-991.509	935.312	1410.408	-816.774	1093.333	1400.069	-1089.732	901.918	1359.224	-1018.32	805.808	912.273	-931.367	928.426	931.864	-1133.492	1010.085	964.19	-952.633	1003.935	475.029	-1165.377	948.758	454.642	-1065.367	849.706	476.106	-846.844	886.487	456.916	-949.822	907.052	102.755	-808.597	726.955	56.504	-869.011	1104.929	34.284	-1104.164	990.265	103.145	-1115.232	1060.785	104.897	-1173.878	786.948	45.302	-907.821	793.478	46.391	-802.789	1001.367	31.408	-814.559	927.222	104.539	-894.509	831.546	388.334	-837.206	829.686	307.727	-819.066	876.041	54.62	-1277.235	900.038	44.537	-1205.368	986.479	37.492	-1275.02	792.147	613.144	-878.172	793.498	696.138	-874.522	837.801	692.403	-829.166	1032.11	656.611	-1155.253	977.533	648.259	-1188.627	978.421	565.152	-1181.683	988.352	390.328	-1204.619	1003.67	304.027	-1210.202	1047.476	399.371	-1181.305	883.952	395.968	-801.115	885.719	309.806	-784.728	1062.746	317.313	-1187.064	837.748	605.614	-833.337	1031.776	568.331	-1148.766	1098.297	32.129	-1172.679	1024.798	25.264	-1100.989	935.323	22.265	-780.075	956.493	27.285	-883.559
2002	10.005	925.979	1692.83	-991.504	935.306	1410.4	-816.753	1093.31	1400.078	-1089.728	901.91	1359.245	-1018.347	805.81	912.267	-931.351	928.43	931.85	-1133.474	1010.08	964.211	-952.611	1003.959	475.029	-1165.38	948.82	454.661	-1065.361	849.703	476.107	-846.843	886.445	456.953	-949.808	907.01	102.767	-808.596	726.951	56.483	-869.01	1104.923	34.278	-1104.17	990.257	103.155	-1115.244	1060.787	104.834	-1173.914	786.94	45.298	-907.795	793.475	46.361	-802.783	1001.378	31.391	-814.534	927.221	104.564	-894.529	831.575	388.337	-837.193	829.698	307.707	-819.089	876.02	54.638	-1277.25	900.034	44.551	-1205.357	986.486	37.435	-1275.006	792.145	613.144	-878.15	793.518	696.109	-874.514	837.773	692.424	-829.155	1032.116	656.598	-1155.239	977.568	648.233	-1188.617	978.459	565.163	-1181.683	988.328	390.339	-1204.608	1003.698	304.015	-1210.243	1047.488	399.384	-1181.304	883.96	395.954	-801.106	885.722	309.831	-784.7	1062.769	317.339	-1187.087	838.712	604.337	-833.717	1031.777	568.299	-1148.732	1098.29	32.106	-1172.666	1024.781	25.28	-1100.981	935.323	22.291	-780.038	956.462	27.29	-883.62
2003	10.01	925.942	1692.832	-991.514	935.285	1410.398	-816.742	1093.308	1400.084	-1089.719	901.871	1359.235	-1018.313	805.83	912.258	-931.359	928.438	931.871	-1133.477	1010.087	964.165	-952.631	1003.97	475.036	-1165.368	948.78	454.663	-1065.377	849.747	476.08	-846.861	886.416	456.95	-949.859	907.028	102.759	-808.596	726.931	56.498	-869.018	1104.929	34.278	-1104.165	990.277	103.209	-1115.245	1060.706	104.816	-1173.967	786.931	45.328	-907.785	793.467	46.395	-802.803	1001.324	31.415	-814.547	927.17	104.549	-894.498	831.56	388.335	-837.174	829.693	307.729	-819.067	876.023	54.621	-1277.241	900.039	44.542	-1205.378	986.472	37.449	-1275.02	792.164	613.147	-878.149	793.522	696.109	-874.502	837.77	692.416	-829.152	1032.124	656.611	-1155.248	977.564	648.243	-1188.626	978.458	565.148	-1181.662	988.357	390.349	-1204.593	1003.703	304.003	-1210.203	1047.486	399.416	-1181.32	883.956	395.947	-801.098	885.687	309.817	-784.724	1062.767	317.317	-1187.04	837.786	605.611	-833.325	1031.8	568.322	-1148.72	1098.315	32.131	-1172.706	1024.779	25.271	-1100.986	935.324	22.288	-780.034	956.499	27.273	-883.561
2004	10.015	925.874	1692.844	-991.513	935.264	1410.412	-816.73	1093.27	1400.1	-1089.71	901.853	1359.242	-1018.315	805.832	912.281	-931.343	928.466	931.88	-1133.482	1010.09	964.237	-952.649	1003.996	475.064	-1165.361	948.774	454.661	-1065.402	849.74	476.12	-846.867	886.459	456.946	-949.839	907.247	103.158	-808.355	726.949	56.523	-869.008	1104.934	34.286	-1104.167	990.293	103.193	-1115.221	1060.768	104.854	-1173.867	786.935	45.314	-907.791	793.472	46.387	-802.793	1001.368	31.388	-814.544	927.203	104.549	-894.494	831.561	388.336	-837.18	829.731	307.719	-819.101	876.015	54.657	-1277.242	900.026	44.555	-1205.372	986.511	37.478	-1275.007	792.18	613.139	-878.149	793.521	696.123	-874.511	837.798	692.44	-829.152	1032.149	656.641	-1155.251	977.565	648.254	-1188.615	978.482	565.204	-1181.683	988.358	390.355	-1204.616	1003.696	304.034	-1210.214	1047.512	399.411	-1181.309	883.957	395.955	-801.116	885.717	309.799	-784.715	1062.767	317.353	-1187.078	837.795	605.596	-833.307	1031.813	568.326	-1148.718	1098.291	32.151	-1172.681	1024.779	25.294	-1100.978	935.334	22.269	-780.055	956.469	27.273	-883.565
2005	10.02	925.835	1692.842	-991.501	935.258	1410.404	-816.715	1093.265	1400.146	-1089.716	901.824	1359.251	-1018.311	805.836	912.273	-931.37	928.477	931.886	-1133.481	1010.077	964.216	-952.629	1003.99	475.063	-1165.361	948.828	454.696	-1065.371	849.696	476.128	-846.867	886.448	456.959	-949.852	907.083	102.767	-808.611	726.961	56.485	-869.006	1104.924	34.286	-1104.175	990.279	103.176	-1115.236	1060.661	104.668	-1173.936	786.914	45.324	-907.805	793.499	46.362	-802.79	1001.387	31.434	-814.545	927.218	104.579	-894.52	831.57	388.334	-837.183	829.709	307.713	-819.083	876.015	54.677	-1277.233	900.039	44.557	-1205.395	986.521	37.497	-1275.031	792.187	613.167	-878.151	793.537	696.137	-874.525	837.826	692.435	-829.155	1032.139	656.62	-1155.237	977.615	648.259	-1188.612	978.469	565.176	-1181.678	988.35	390.36	-1204.622	1003.674	304.074	-1210.234	1047.504	399.38	-1181.297	883.953	395.989	-801.118	885.732	309.81	-784.71	1062.761	317.303	-1187.069	837.802	605.594	-833.294	1031.806	568.322	-1148.741	1098.298	32.156	-1172.684	1024.812	25.303	-1100.984	935.351	22.316	-780.062	956.461	27.28	-883.575
2006	10.025	925.799	1692.857	-991.514	935.228	1410.407	-816.738	1093.268	1400.159	-1089.689	901.831	1359.279	-1018.312	805.86	912.279	-931.39	928.477	931.871	-1133.49	1010.111	964.233	-952.639	1003.993	475.057	-1165.386	948.821	454.694	-1065.373	849.685	476.12	-846.9	886.431	456.931	-949.858	907.029	102.779	-808.627	726.963	56.532	-869.007	1104.937	34.291	-1104.184	990.289	103.187	-1115.248	1060.76	104.905	-1173.896	786.922	45.337	-907.813	793.464	46.396	-802.793	1001.35	31.471	-814.563	927.255	104.588	-894.54	831.584	388.38	-837.186	829.718	307.749	-819.096	876.015	54.681	-1277.244	900.052	44.58	-1205.382	986.51	37.487	-1275.009	792.187	613.174	-878.196	793.541	696.102	-874.511	837.822	692.437	-829.164	1032.169	656.641	-1155.224	977.623	648.252	-1188.614	978.479	565.179	-1181.683	988.372	390.377	-1204.622	1003.682	304.064	-1210.257	1047.507	399.4	-1181.312	883.95	395.99	-801.117	885.71	309.812	-784.739	1062.76	317.298	-1187.073	837.821	605.565	-833.33	1031.841	568.273	-1148.694	1098.311	32.164	-1172.69	1024.808	25.288	-1100.997	935.329	22.302	-780.056	956.433	27.354	-883.626
2007	10.03	925.734	1692.864	-991.527	935.234	1410.403	-816.74	1093.242	1400.165	-1089.677	901.835	1359.264	-1018.292	805.871	912.297	-931.372	928.489	931.915	-1133.521	1010.11	964.222	-952.65	1003.989	475.059	-1165.387	948.839	454.716	-1065.378	849.701	476.138	-846.89	886.436	457.01	-949.867	907.049	102.801	-808.595	726.954	56.547	-869	1104.942	34.309	-1104.192	990.293	103.206	-1115.255	1060.756	104.774	-1173.924	786.917	45.326	-907.812	793.473	46.376	-802.814	1001.371	31.441	-814.543	927.188	104.61	-894.503	831.538	388.38	-837.223	829.704	307.737	-819.124	876.008	54.715	-1277.24	900.019	44.586	-1205.409	986.505	37.508	-1275.042	792.182	613.173	-878.179	793.543	696.154	-874.517	837.808	692.457	-829.172	1032.176	656.642	-1155.258	977.608	648.284	-1188.63	978.48	565.203	-1181.684	988.386	390.345	-1204.64	1003.713	304.031	-1210.249	1047.535	399.385	-1181.307	883.997	395.969	-801.125	885.685	309.804	-784.727	1062.785	317.336	-1187.084	837.833	605.536	-833.324	1031.838	568.318	-1148.719	1098.296	32.143	-1172.693	1024.791	25.305	-1101.022	935.324	22.331	-780.047	956.466	27.317	-883.594
